<svg version="1.1" id="Layer_1" xmlns="http://www.w3.org/2000/svg" xmlns:xlink="http://www.w3.org/1999/xlink" x="0px" y="0px"
	 width="100%" viewBox="0 0 1024 672" enable-background="new 0 0 1024 672" xml:space="preserve">
<path fill="#000000" opacity="1.000000" stroke="none" 
	d="
M263.841553,332.763916 
	C276.584198,328.427063 289.021942,324.474396 302.091309,322.439392 
	C279.888885,335.024933 256.823730,345.894501 235.009476,358.874207 
	C237.221771,366.224304 240.105179,367.516846 245.933716,364.052307 
	C281.543335,342.885498 318.697906,324.977234 357.725616,311.013580 
	C363.347198,309.002258 364.036255,309.418579 364.064087,315.471741 
	C364.103882,324.136749 364.296722,332.811462 363.975555,341.465393 
	C363.378937,357.540924 355.705719,370.166260 343.358337,379.800812 
	C326.252533,393.148438 307.352905,403.833099 288.900879,415.164215 
	C286.993713,416.335388 285.266449,416.467682 283.324890,415.241547 
	C265.723328,404.125824 247.492325,393.957245 230.940063,381.256622 
	C220.855576,373.518707 213.971710,363.441803 211.394745,350.787689 
	C210.867935,348.200714 210.667252,345.506744 210.659424,342.861053 
	C210.588989,319.030823 210.614868,295.200348 210.552536,271.370087 
	C210.545181,268.561188 210.869019,266.302155 213.693817,264.664886 
	C236.034088,251.716232 258.320251,238.673676 280.567200,225.565201 
	C283.331696,223.936264 285.536407,223.841461 288.343170,225.615036 
	C297.495911,231.398636 306.762268,237.010147 316.114441,242.465790 
	C319.068512,244.189056 320.491028,246.235458 320.209869,249.673584 
	C319.820496,254.434769 320.667877,259.276306 319.641327,263.812988 
	C317.430939,265.092865 316.177399,263.648193 314.810944,262.844604 
	C305.907471,257.608551 296.979584,252.411591 288.158508,247.039536 
	C285.770538,245.585266 283.863586,245.289688 281.312561,246.795059 
	C264.670532,256.615662 247.944763,266.294525 231.230591,275.992493 
	C229.555710,276.964294 228.256271,278.031311 228.262741,280.203491 
	C228.324768,301.032043 228.351303,321.860718 228.418152,342.689240 
	C228.419586,343.136932 228.779129,343.583466 229.274384,344.733704 
	C240.670578,340.780426 252.066254,336.827332 263.841553,332.763916 
M280.098572,374.574158 
	C302.274933,355.963989 325.859467,339.140564 348.423584,321.013519 
	C316.509644,337.942047 285.243103,355.847992 256.434418,377.793671 
	C262.525421,385.258331 266.476318,385.814697 273.018982,380.452362 
	C275.208191,378.658081 277.376251,376.837952 280.098572,374.574158 
M332.421600,351.953735 
	C315.415985,365.702484 298.410339,379.451233 281.331543,393.259094 
	C287.351318,398.755890 288.073059,398.830353 293.287506,394.277771 
	C300.300110,388.155273 307.413483,382.135071 314.193817,375.762634 
	C325.402374,365.228394 336.500671,354.560608 345.433624,341.818451 
	C341.285645,345.052368 337.137665,348.286255 332.421600,351.953735 
z"/>
<path fill="#000000" opacity="1.000000" stroke="none" 
	d="
M310.524292,269.434906 
	C312.735748,270.669342 314.591064,271.793549 316.525238,272.760010 
	C319.233185,274.113098 320.259827,276.230927 320.218384,279.226410 
	C320.110138,287.053223 320.117096,294.883209 320.209534,302.710358 
	C320.240967,305.375458 319.411438,307.131165 316.753113,308.019836 
	C290.711823,316.725464 264.686035,325.477509 238.645416,334.185089 
	C238.058136,334.381470 237.347794,334.209778 236.735748,334.209778 
	C235.199875,332.814453 235.731079,331.040741 235.726349,329.461975 
	C235.684479,315.471039 235.815079,301.478638 235.643646,287.489716 
	C235.599426,283.880463 236.758713,281.723846 239.948090,279.946869 
	C253.474701,272.410431 266.906586,264.701111 280.284485,256.902954 
	C283.193726,255.207123 285.598999,254.959076 288.578705,256.766022 
	C295.694519,261.081177 302.984039,265.109894 310.524292,269.434906 
M294.711639,293.123383 
	C294.568481,292.083496 294.172699,291.209503 293.144928,290.756561 
	C288.581696,288.745575 285.497070,290.793213 285.387665,296.055176 
	C285.322021,299.214417 284.218567,302.775116 289.826202,302.860077 
	C295.045258,302.939148 294.959808,299.988922 294.830475,296.464050 
	C294.800018,295.632812 294.797943,294.800476 294.711639,293.123383 
M273.303192,297.379791 
	C272.918732,301.007507 274.058319,302.838684 278.197998,302.798798 
	C282.248352,302.759766 282.913574,300.726532 282.698853,297.476562 
	C282.492065,294.346741 283.741608,290.646423 278.397430,290.298157 
	C273.351959,289.969330 273.052338,292.855133 273.303192,297.379791 
M287.266815,277.578583 
	C284.040924,280.191467 284.745331,283.822327 286.162262,286.520416 
	C287.380402,288.840027 290.919708,288.132507 293.024078,287.279785 
	C296.214264,285.987061 294.868469,282.626007 294.660858,280.216675 
	C294.267151,275.647675 290.524963,277.796814 287.266815,277.578583 
M279.997223,287.587555 
	C284.641327,286.187195 282.211121,282.411560 282.517029,279.656067 
	C282.727783,277.757904 281.015930,277.356293 279.401245,277.362427 
	C276.453827,277.373596 273.436768,276.741364 273.227875,281.489899 
	C273.025574,286.088837 274.160156,288.503540 279.997223,287.587555 
z"/>
<path fill="#000000" opacity="1.000000" stroke="none" 
	d="
M717.297180,302.000061 
	C717.307861,308.489349 717.433105,314.481750 717.270447,320.466339 
	C717.208618,322.741943 718.616150,326.271301 715.288391,326.862762 
	C711.592102,327.519745 707.411865,328.486664 704.374084,324.349396 
	C699.355469,317.514679 694.060730,310.881256 688.817871,304.213745 
	C687.413696,302.428040 686.227234,300.390106 683.346924,298.727600 
	C683.346924,306.996704 683.217712,314.730133 683.407715,322.455688 
	C683.488708,325.746429 682.756592,327.685303 679.051392,327.174927 
	C675.796021,326.726532 671.027771,328.856476 671.000427,322.721863 
	C670.938965,308.913483 670.982300,295.104675 670.933777,281.296204 
	C670.924133,278.540161 672.147217,277.769928 674.862854,277.492859 
	C680.163574,276.951965 683.808960,278.431854 686.981689,283.049744 
	C692.124207,290.534485 698.067627,297.468964 704.861084,304.269775 
	C704.861084,297.214233 705.181213,290.139771 704.765076,283.108856 
	C704.398193,276.910065 708.299072,277.854919 712.156006,277.532593 
	C716.607117,277.160583 717.518372,279.121277 717.363953,283.035431 
	C717.121582,289.181641 717.297974,295.344330 717.297180,302.000061 
z"/>
<path fill="#000000" opacity="1.000000" stroke="none" 
	d="
M452.161957,277.113159 
	C457.451782,277.164520 462.316345,276.692078 467.032166,278.083679 
	C473.433624,279.972687 477.994446,283.797180 479.041962,290.685486 
	C480.045746,297.286072 478.214203,302.887024 472.348267,306.723785 
	C471.812134,307.074463 471.392151,307.602753 470.712036,308.242493 
	C473.521057,314.869843 479.185760,319.608856 482.600098,325.829102 
	C475.112854,329.174744 468.932098,327.615509 464.779327,321.631500 
	C462.690948,318.622223 460.538361,315.656189 458.504913,312.610413 
	C456.677612,309.873383 453.999603,309.903076 451.372803,310.551544 
	C448.709412,311.208984 449.494080,313.706360 449.369537,315.589966 
	C449.259918,317.248322 449.335480,318.919098 449.334961,320.584412 
	C449.332977,327.209290 449.253937,327.058441 442.694946,327.249298 
	C438.255127,327.378540 436.855988,325.551392 436.901245,321.347504 
	C437.039307,308.526123 437.044342,295.700806 436.875244,282.879974 
	C436.818207,278.556366 438.199921,276.809753 442.727295,277.393677 
	C445.654419,277.771210 448.698914,277.238831 452.161957,277.113159 
M464.080139,298.772217 
	C468.007050,293.072327 465.800690,288.179016 458.956360,287.408600 
	C450.078979,286.409271 448.050171,288.575195 449.366089,297.472687 
	C449.643921,299.351257 450.306793,300.721619 452.353088,300.731476 
	C456.125122,300.749603 460.006531,301.441956 464.080139,298.772217 
z"/>
<path fill="#000000" opacity="1.000000" stroke="none" 
	d="
M594.834351,277.763458 
	C612.975586,286.031158 617.464966,307.482483 604.217346,320.846344 
	C597.022827,328.104004 583.714661,330.120300 572.882935,325.593842 
	C563.806458,321.800934 559.082947,313.331909 558.482971,302.472992 
	C557.347717,281.925964 576.962158,272.249725 594.834351,277.763458 
M571.322083,305.848907 
	C573.784668,314.172760 580.291565,318.291260 588.223999,316.546875 
	C595.786255,314.883911 600.030701,307.613617 598.643433,298.699585 
	C597.458984,291.088684 591.280151,286.479919 583.191528,287.174164 
	C574.705383,287.902466 570.714355,293.855682 571.322083,305.848907 
z"/>
<path fill="#000000" opacity="1.000000" stroke="none" 
	d="
M661.908081,314.447235 
	C656.399231,329.769714 634.486206,331.042297 624.649109,323.505859 
	C619.307129,319.413239 617.316895,313.652588 617.091980,307.319733 
	C616.785095,298.675995 616.992371,290.014832 616.913513,281.361725 
	C616.886353,278.376190 618.217590,277.087494 621.186829,277.346039 
	C622.673523,277.475464 624.201538,277.637177 625.663757,277.438110 
	C628.834229,277.006439 629.925903,278.561676 629.868774,281.408478 
	C629.732056,288.224640 629.570068,295.040253 629.434021,301.856445 
	C629.387695,304.181763 629.413696,306.471313 630.056274,308.774475 
	C631.708374,314.695740 635.286133,317.275391 641.441772,316.720825 
	C646.867310,316.231964 650.444824,312.608521 650.613770,306.749023 
	C650.843933,298.766479 650.999634,290.758850 650.621948,282.788818 
	C650.310852,276.226837 654.768921,277.998840 658.288025,277.549866 
	C662.488281,277.014038 663.493530,279.026367 663.278503,282.741364 
	C662.674438,293.175659 664.514832,303.706482 661.908081,314.447235 
z"/>
<path fill="#000000" opacity="1.000000" stroke="none" 
	d="
M522.493164,292.645813 
	C519.524536,297.191162 519.638733,301.918762 520.547913,306.497498 
	C522.421875,315.935638 533.254517,319.978943 541.402527,314.512360 
	C547.475647,310.437836 549.113220,310.586456 554.702087,315.786255 
	C554.170715,318.513733 552.311279,320.459503 550.382263,322.252655 
	C543.709045,328.455994 529.765747,329.806976 520.662903,325.239258 
	C511.246674,320.514282 505.799591,309.991699 507.090149,299.019623 
	C508.411499,287.786163 515.057312,279.700165 525.483704,277.283691 
	C534.417542,275.213196 543.065979,275.746063 550.477356,282.008881 
	C552.380432,283.616974 554.477600,285.591736 554.071777,288.246613 
	C553.644104,291.044403 550.632080,291.527405 548.458984,292.627899 
	C546.515991,293.611847 545.123840,292.813599 543.588806,291.445038 
	C536.333374,284.976715 529.128967,285.337677 522.493164,292.645813 
z"/>
<path fill="#000000" opacity="1.000000" stroke="none" 
	d="
M774.222229,288.742279 
	C772.157471,285.140869 769.522095,282.269684 768.393860,278.549133 
	C775.324097,275.511810 781.486450,277.361572 785.249756,283.338837 
	C787.780945,287.359131 789.752991,291.788818 793.414124,295.379211 
	C796.831787,291.976074 798.616150,287.824432 800.900574,284.044739 
	C804.907837,277.414459 810.015930,275.554474 818.483765,278.451080 
	C814.755493,284.415405 811.521729,290.581635 807.346863,296.026245 
	C801.604736,303.514832 798.629150,311.464722 799.918945,320.944427 
	C800.191833,322.949738 800.671814,325.886963 798.191895,326.675171 
	C794.910583,327.718109 791.278503,327.765442 787.949280,326.486359 
	C786.581787,325.960999 786.579163,324.182098 786.801453,322.914368 
	C788.877258,311.075012 783.783691,301.661163 776.830566,292.828674 
	C775.910461,291.659760 775.217468,290.312012 774.222229,288.742279 
z"/>
<path fill="#000000" opacity="1.000000" stroke="none" 
	d="
M390.404968,277.784729 
	C402.843109,277.658508 414.828979,277.731079 426.807709,277.473267 
	C430.573303,277.392212 431.360443,279.068512 431.248047,282.267487 
	C431.145966,285.171875 431.528168,287.860413 427.196564,288.148071 
	C416.237549,288.875763 416.252197,289.021759 416.277466,299.955414 
	C416.294769,307.445160 416.109528,314.941467 416.371063,322.422363 
	C416.540100,327.256866 413.680634,327.306580 410.248413,327.206238 
	C406.883301,327.107819 403.469482,327.701691 403.605316,322.381531 
	C403.847443,312.900696 403.506989,303.405090 403.743195,293.923950 
	C403.849792,289.644989 402.423370,287.649841 398.051025,288.035980 
	C396.729553,288.152710 395.382111,288.151215 394.059875,288.042358 
	C392.006409,287.873291 389.175385,288.718781 388.491089,286.006317 
	C387.803772,283.281830 386.824921,280.081757 390.404968,277.784729 
z"/>
<path fill="#000000" opacity="1.000000" stroke="none" 
	d="
M753.765381,277.593353 
	C755.731323,277.545502 757.239685,277.612122 758.718323,277.433075 
	C762.356873,276.992432 765.276550,276.921722 765.320190,282.090424 
	C765.358948,286.688049 763.671509,288.567841 759.164673,288.067657 
	C758.179382,287.958313 757.161072,288.144531 756.176270,288.033081 
	C751.495667,287.503540 750.151672,289.717743 750.275391,294.167328 
	C750.534180,303.468719 750.106201,312.791351 750.445618,322.087585 
	C750.648804,327.653107 747.277344,327.097137 743.671204,327.254669 
	C739.882629,327.420135 737.708618,326.629974 737.832153,322.139435 
	C738.092712,312.671692 737.834290,303.190155 738.063293,293.720886 
	C738.159851,289.729706 736.919983,287.676331 732.707458,288.096802 
	C732.215271,288.145935 731.711365,288.076843 731.212891,288.064056 
	C722.564514,287.841705 721.981934,287.049774 724.191833,277.596069 
	C733.775330,277.596069 743.534790,277.596069 753.765381,277.593353 
z"/>
<path fill="#000000" opacity="1.000000" stroke="none" 
	d="
M333.776428,257.105316 
	C334.083191,254.240387 333.095215,251.635849 334.852203,249.478836 
	C342.158783,251.216873 343.127655,252.376694 343.134552,259.413147 
	C343.147797,272.899658 342.920563,286.391907 343.265106,299.869720 
	C343.397064,305.031128 342.091614,308.189331 336.724091,309.046936 
	C334.310974,309.432526 332.176697,311.133667 328.902161,310.619873 
	C328.282410,297.000580 329.187469,283.325531 328.088318,270.443756 
	C330.161438,268.498657 331.907013,270.196655 333.404541,268.629272 
	C334.227722,265.195557 333.568390,261.363312 333.776428,257.105316 
z"/>
<path fill="#000000" opacity="1.000000" stroke="none" 
	d="
M500.882935,318.603271 
	C500.667694,327.583374 500.670837,327.412415 492.652344,327.264496 
	C488.813141,327.193634 487.871826,325.456787 487.887543,322.029816 
	C487.947815,308.908020 488.075745,295.779022 487.704834,282.666077 
	C487.530243,276.492950 491.351471,277.279083 495.218018,277.021484 
	C499.590240,276.730164 501.089172,278.511047 501.013794,282.806122 
	C500.807098,294.585968 500.904541,306.371094 500.882935,318.603271 
z"/>
<path fill="#000000" opacity="1.000000" stroke="none" 
	d="
M348.683990,302.317627 
	C348.672882,296.738129 348.612640,291.586609 348.696442,286.437408 
	C348.739349,283.801971 347.714874,280.722870 351.896149,279.757385 
	C353.539886,279.377899 352.852570,277.157745 352.941040,275.733948 
	C353.274353,270.366943 352.563538,264.910889 353.676025,259.492950 
	C362.932037,261.933899 364.178284,263.441437 364.187195,271.676819 
	C364.196014,279.817963 364.067993,287.961304 364.228485,296.099182 
	C364.293915,299.416840 363.282928,301.408569 359.903961,302.244934 
	C357.176422,302.920044 354.566711,304.065430 351.894623,304.972412 
	C349.853088,305.665405 348.655853,305.077393 348.683990,302.317627 
z"/>
<path fill="#000000" opacity="1.000000" stroke="none" 
	d="
M395.113342,364.350342 
	C392.372620,364.453796 391.264893,363.243988 391.160950,361.073761 
	C391.065399,359.078613 391.164368,357.073639 391.053467,355.079895 
	C390.825897,350.989258 391.734955,348.316101 396.804230,348.742645 
	C402.235931,349.199646 403.445312,350.149567 403.417969,355.550262 
	C403.416290,355.882446 403.358215,356.217194 403.384125,356.546204 
	C403.969330,363.983002 403.661377,364.292328 395.113342,364.350342 
z"/>
<path fill="#000000" opacity="1.000000" stroke="none" 
	d="
M644.135376,363.765717 
	C641.367432,364.326904 641.367432,364.326904 636.761475,360.463684 
	C636.397461,360.691620 635.840088,360.847565 635.632202,361.206116 
	C634.939819,362.399750 635.176025,364.542084 633.033813,364.247437 
	C630.728882,363.930481 631.147034,361.853271 631.054321,360.273132 
	C630.957031,358.614624 630.956177,356.940948 631.056519,355.282593 
	C631.190125,353.073578 630.044800,350.013763 632.878418,349.134857 
	C636.020569,348.160187 639.537842,348.151520 642.460266,350.301605 
	C644.258972,351.625000 645.013428,353.870880 643.907104,355.639923 
	C642.097473,358.533325 642.946289,360.919098 644.135376,363.765717 
z"/>
<path fill="#000000" opacity="1.000000" stroke="none" 
	d="
M526.246338,351.183167 
	C526.853943,353.117493 525.782715,354.351105 525.137634,356.184570 
	C533.013672,355.154236 528.121094,361.426483 530.616089,364.253052 
	C526.973633,364.476318 524.040894,364.905640 521.133972,364.772552 
	C517.303772,364.597168 515.419922,361.457123 516.563660,357.739746 
	C516.949951,356.484253 517.432922,355.236603 517.629578,353.948425 
	C518.477600,348.393097 521.161255,347.397400 526.246338,351.183167 
z"/>
<path fill="#000000" opacity="1.000000" stroke="none" 
	d="
M769.583862,349.985718 
	C769.904724,353.977600 770.018555,357.622406 770.062012,361.268066 
	C770.075867,362.432526 769.997742,363.717529 768.699402,364.233887 
	C767.205444,364.828033 766.185181,363.937866 765.307617,362.840302 
	C763.866882,361.038300 762.417542,359.243164 760.943542,357.410004 
	C759.356689,358.468201 759.794617,359.878967 759.743958,361.091461 
	C759.681946,362.578827 760.067383,364.399719 757.780518,364.296967 
	C755.647156,364.201019 755.845154,362.343262 755.816223,360.892487 
	C755.759888,358.068878 755.810608,355.242920 755.831848,352.418060 
	C755.842163,351.048340 755.957520,349.664948 757.564819,349.209747 
	C759.094299,348.776642 760.062195,349.763672 760.932312,350.815002 
	C762.272095,352.433868 763.591980,354.069244 764.871704,355.638000 
	C767.570862,354.251465 763.800720,348.615936 769.583862,349.985718 
z"/>
<path fill="#000000" opacity="1.000000" stroke="none" 
	d="
M552.696533,357.751190 
	C551.023193,359.720520 553.474487,364.056671 550.131348,363.939789 
	C546.450073,363.810974 548.038818,359.694000 548.031799,357.385193 
	C548.023376,354.609955 546.379272,350.565948 549.699219,349.298096 
	C552.859802,348.091125 553.674988,352.569702 555.871155,354.112762 
	C556.251160,354.379761 556.708008,354.537262 557.059570,354.710876 
	C557.316345,354.570801 557.494446,354.528625 557.584961,354.415985 
	C558.851746,352.839661 557.304382,348.979553 560.194824,349.323242 
	C563.577209,349.725555 561.845398,353.332733 562.187805,355.557709 
	C562.412231,357.016388 562.297668,358.543945 562.196838,360.031311 
	C562.091553,361.584534 562.757202,363.634735 560.513489,364.186981 
	C558.525696,364.676239 557.652710,362.956268 556.586182,361.700531 
	C555.417480,360.324402 554.168274,359.016602 552.696533,357.751190 
z"/>
<path fill="#000000" opacity="1.000000" stroke="none" 
	d="
M454.516693,348.883850 
	C460.637817,351.018097 462.816071,354.529083 461.369904,359.300751 
	C460.093536,363.512177 454.095154,366.604248 449.348846,364.459839 
	C444.389130,362.218994 447.693420,357.109497 446.987946,353.346649 
	C446.579620,351.168671 447.033905,348.888885 450.116943,348.807037 
	C451.440521,348.771851 452.766266,348.817963 454.516693,348.883850 
M457.469299,358.057770 
	C458.030304,355.122131 456.862152,353.221161 453.976532,352.510620 
	C452.731689,352.204102 451.555298,352.633881 451.337952,354.047577 
	C451.016144,356.140625 450.314087,358.639496 452.119385,360.127716 
	C453.929962,361.620331 455.847412,360.574341 457.469299,358.057770 
z"/>
<path fill="#000000" opacity="1.000000" stroke="none" 
	d="
M574.270264,364.676086 
	C566.201172,365.081665 565.684448,364.567444 566.295227,357.208832 
	C566.322693,356.877350 566.288635,356.512207 566.417175,356.222107 
	C567.526550,353.718628 564.556458,349.221191 569.774902,348.775146 
	C574.049622,348.409790 578.270386,348.782043 580.187500,353.634399 
	C581.943115,358.078033 580.253235,361.391205 576.528198,363.905518 
	C575.995422,364.265137 575.293701,364.374512 574.270264,364.676086 
M576.238647,358.690430 
	C577.281433,356.145721 576.752991,354.154419 574.161255,352.936218 
	C572.831665,352.311279 571.326233,352.208282 570.749451,353.721069 
	C569.985107,355.725647 569.540527,358.167999 571.010254,359.876099 
	C572.449036,361.548370 574.325806,360.607422 576.238647,358.690430 
z"/>
<path fill="#000000" opacity="1.000000" stroke="none" 
	d="
M792.848938,363.620422 
	C790.858032,361.356598 789.174683,359.323730 787.461182,357.254456 
	C785.519226,358.369202 786.428528,360.044312 786.145569,361.354523 
	C785.865845,362.649628 785.916992,364.103424 783.440796,364.099243 
	C781.892639,359.782318 782.108887,355.176331 782.918091,350.756989 
	C783.451904,347.842041 785.584839,349.046417 786.979187,350.481384 
	C788.795105,352.350250 789.826843,354.936646 792.246094,356.399841 
	C793.951599,354.243164 791.442627,350.853546 795.275513,348.805176 
	C797.891113,352.893829 796.919006,357.200378 796.396179,361.445923 
	C796.154053,363.411835 795.431335,364.658051 792.848938,363.620422 
z"/>
<path fill="#000000" opacity="1.000000" stroke="none" 
	d="
M723.759155,359.740662 
	C723.753662,358.281860 723.753418,357.286499 723.751282,356.291168 
	C723.734802,348.537109 724.239746,348.072662 731.892822,348.757446 
	C733.192078,348.873718 734.868530,348.639923 735.037231,350.412628 
	C735.216675,352.298981 733.547913,352.206116 732.237549,352.375824 
	C731.013733,352.534271 729.502258,351.964539 728.776245,353.650909 
	C729.777161,356.220856 734.585083,353.455048 734.265320,357.140411 
	C734.013367,360.043793 730.357422,357.778259 728.733032,359.712952 
	C730.096375,362.386261 734.640747,359.453461 735.355164,363.157013 
	C730.199768,366.756042 724.677551,365.319458 723.759155,359.740662 
z"/>
<path fill="#000000" opacity="1.000000" stroke="none" 
	d="
M806.406067,348.887207 
	C807.640259,348.801971 808.488281,348.677307 809.296509,348.804657 
	C811.254578,349.113129 814.029724,349.390930 813.682800,351.811371 
	C813.259583,354.764008 810.862244,352.748749 809.276001,352.494446 
	C806.110352,351.987000 804.533813,353.616699 804.163208,356.508575 
	C803.767761,359.594482 805.445190,360.853638 809.639465,360.792938 
	C811.118469,359.503418 807.076172,356.325043 811.181824,355.889679 
	C812.781677,355.720032 814.344421,355.968353 814.854980,357.703613 
	C815.643616,360.384125 814.879211,362.635956 812.361328,364.100159 
	C808.612671,366.280090 802.942871,364.443939 800.784424,360.367188 
	C798.400330,355.864166 800.319763,351.668304 806.406067,348.887207 
z"/>
<path fill="#000000" opacity="1.000000" stroke="none" 
	d="
M588.630859,364.602692 
	C584.469849,362.077972 582.281677,354.201721 584.326721,350.455872 
	C584.755981,349.669647 585.314819,349.071350 586.257446,349.223175 
	C587.173584,349.370758 587.732056,350.086639 587.810120,350.942810 
	C587.990845,352.925385 588.015503,354.921631 588.134155,356.910522 
	C588.251770,358.881348 588.754456,360.710876 591.188354,360.621521 
	C593.361938,360.541748 593.700806,358.762054 593.810730,357.027924 
	C593.936768,355.039154 593.891602,353.035431 594.103943,351.057861 
	C594.212830,350.043182 594.864868,349.179596 596.076172,349.203857 
	C597.011230,349.222534 597.477356,349.876984 597.848450,350.684509 
	C601.102905,357.766846 596.609741,364.917236 588.630859,364.602692 
z"/>
<path fill="#000000" opacity="1.000000" stroke="none" 
	d="
M491.687317,351.564941 
	C491.998718,353.069061 492.596863,354.509277 492.119965,355.305847 
	C490.300873,358.344269 490.667328,361.105530 492.891998,363.798157 
	C488.374969,366.242981 487.711334,360.802734 485.264648,360.500397 
	C482.784912,360.801025 483.845001,363.838715 481.685608,363.933777 
	C479.648956,361.706696 478.501526,351.000519 480.572693,349.876129 
	C484.265137,347.871552 488.184509,347.983704 491.687317,351.564941 
M486.760803,352.665344 
	C485.092102,352.305786 483.561829,352.433777 483.703918,354.606995 
	C483.782135,355.803314 485.080078,355.979889 486.083191,355.824280 
	C487.896667,355.542999 489.098785,354.847961 486.760803,352.665344 
z"/>
<path fill="#000000" opacity="1.000000" stroke="none" 
	d="
M752.221191,360.714111 
	C752.698914,362.128998 753.445801,363.306702 752.059875,364.134125 
	C751.120789,364.694794 750.023621,364.512329 749.354980,363.658203 
	C746.785706,360.376343 744.135559,360.694275 741.375977,363.338135 
	C740.361572,364.309998 739.265320,365.202118 737.950439,364.035126 
	C736.856506,363.064209 737.569824,361.877167 738.040344,360.836548 
	C739.474182,357.666351 740.934875,354.508179 742.406738,351.355408 
	C742.980530,350.126343 743.675293,348.939850 745.245667,348.919739 
	C747.081299,348.896271 747.736145,350.324432 748.344360,351.703918 
	C749.614258,354.584503 750.845215,357.482269 752.221191,360.714111 
z"/>
<path fill="#000000" opacity="1.000000" stroke="none" 
	d="
M668.632202,358.360291 
	C669.355469,360.224457 670.438721,361.594421 670.210449,364.434631 
	C665.200562,361.721985 660.145935,359.406189 655.210876,365.185394 
	C655.919434,358.982971 658.101746,354.542603 660.487610,350.340515 
	C661.986877,347.699860 664.305176,348.027924 665.583313,351.148315 
	C666.525940,353.449432 667.509521,355.733734 668.632202,358.360291 
z"/>
<path fill="#000000" opacity="1.000000" stroke="none" 
	d="
M606.518982,352.875427 
	C606.235718,355.744110 608.633545,354.887726 609.919983,355.509888 
	C612.078247,356.553680 613.586609,357.931213 613.210266,360.481323 
	C612.777649,363.412994 610.630127,364.734741 607.971985,364.981995 
	C605.448547,365.216705 602.631470,364.915100 601.402588,362.409668 
	C600.433838,360.434540 602.155212,359.839233 603.905334,360.169006 
	C605.261047,360.424469 606.502991,361.950867 608.053711,360.384033 
	C607.917786,358.001129 605.646057,358.625275 604.389038,357.869690 
	C602.384827,356.664948 600.964294,355.131317 601.410278,352.627869 
	C601.810181,350.383148 603.500549,349.259644 605.534485,348.758728 
	C607.895935,348.177124 610.365479,348.302338 612.046082,350.189178 
	C613.306580,351.604340 612.078674,352.758209 610.605652,352.976532 
	C609.354553,353.161987 608.021851,352.796234 606.518982,352.875427 
z"/>
<path fill="#000000" opacity="1.000000" stroke="none" 
	d="
M498.451904,357.441895 
	C495.168823,355.178558 494.806488,352.623688 497.434052,350.223877 
	C499.921844,347.951782 502.927460,348.210175 505.739685,349.878876 
	C506.175171,350.137268 506.528107,350.973022 506.483582,351.505371 
	C506.405640,352.437103 505.608673,352.846161 504.694031,352.844208 
	C503.342682,352.841309 501.817749,351.549500 500.667542,353.417511 
	C501.239502,355.506317 503.309479,355.084198 504.663940,355.787323 
	C506.883118,356.939301 507.856049,358.672668 507.351135,361.084076 
	C506.730774,364.046936 504.426117,364.951416 501.780762,365.088226 
	C499.370880,365.212921 496.931641,364.691559 495.750702,362.413177 
	C494.882965,360.739044 496.226349,360.056030 497.840942,360.203339 
	C499.308533,360.337219 500.682495,362.381073 502.295349,360.405823 
	C502.319427,357.938599 499.940735,358.542664 498.451904,357.441895 
z"/>
<path fill="#000000" opacity="1.000000" stroke="none" 
	d="
M706.696533,352.360168 
	C705.187744,354.140320 703.837280,353.094818 702.456848,352.676788 
	C700.553101,352.100281 699.280457,353.109039 698.247742,354.529968 
	C697.300110,355.833740 697.036499,357.276459 697.847839,358.725037 
	C698.753967,360.342957 700.195007,360.863068 702.043274,360.720703 
	C703.715942,360.591858 706.547974,358.497101 706.658447,361.813934 
	C706.750732,364.583801 703.638916,365.066315 701.311523,364.958923 
	C697.045349,364.762115 693.926147,362.593292 693.328552,358.216705 
	C692.800720,354.350433 693.981262,350.770447 698.129211,349.441986 
	C701.414795,348.389648 705.041870,347.483215 706.696533,352.360168 
z"/>
<path fill="#000000" opacity="1.000000" stroke="none" 
	d="
M464.849854,352.265869 
	C466.898193,347.956970 472.014008,347.457031 475.501587,350.784302 
	C474.967773,352.492157 473.477478,352.151276 472.211517,352.341064 
	C471.021362,352.519470 469.433289,351.815857 468.904694,353.760071 
	C470.120758,356.151978 473.710114,353.809998 474.732330,356.699402 
	C473.869354,359.687592 470.231415,357.112915 468.902954,359.601685 
	C470.183563,362.906281 474.392181,359.954407 476.236237,363.173065 
	C473.101044,365.473145 469.555084,364.602844 466.503632,363.904541 
	C463.848083,363.296814 464.979095,360.262115 464.827332,358.229279 
	C464.691315,356.407104 464.820160,354.565155 464.849854,352.265869 
z"/>
<path fill="#000000" opacity="1.000000" stroke="none" 
	d="
M417.567261,358.251709 
	C418.321655,354.985687 416.344940,351.540070 419.407043,349.080841 
	C422.019745,352.244324 422.112610,360.041382 419.658325,362.873352 
	C417.263763,365.636475 414.275574,365.261292 411.419739,364.008209 
	C407.202850,362.157898 406.151428,353.886444 409.516724,349.069824 
	C412.564484,351.069153 410.923279,354.156830 411.279205,356.688293 
	C411.519745,358.399017 411.553619,360.108612 413.542389,360.680206 
	C415.410492,361.217133 416.793579,360.534973 417.567261,358.251709 
z"/>
<path fill="#000000" opacity="1.000000" stroke="none" 
	d="
M621.657959,348.711517 
	C623.568970,348.736298 625.121643,348.512390 626.530823,348.863800 
	C628.229980,349.287537 628.642212,351.323364 627.190369,351.694244 
	C622.122925,352.988739 623.595825,356.809174 623.295044,360.069763 
	C623.148499,361.658142 624.222290,364.353485 621.290039,364.179016 
	C618.989136,364.042053 619.717468,361.652252 619.659912,360.119720 
	C619.521118,356.429718 621.090454,351.967438 614.848938,351.708374 
	C616.121826,347.452545 619.159180,349.301971 621.657959,348.711517 
z"/>
<path fill="#000000" opacity="1.000000" stroke="none" 
	d="
M714.962158,359.943665 
	C716.865234,361.661804 721.179565,360.021759 720.552429,363.175659 
	C719.889832,366.507812 716.125549,364.713409 713.672791,364.721222 
	C711.856812,364.726990 710.438660,363.925751 710.472046,361.752472 
	C710.525574,358.269409 710.570435,354.786133 710.638123,351.303345 
	C710.658630,350.248474 710.944092,349.212311 712.146118,349.068085 
	C713.634094,348.889557 714.187805,349.936584 714.268555,351.224670 
	C714.444031,354.025513 714.560120,356.830109 714.962158,359.943665 
z"/>
<path fill="#000000" opacity="1.000000" stroke="none" 
	d="
M677.392090,351.991119 
	C677.378296,353.708374 677.467529,355.038055 677.338440,356.346161 
	C677.001282,359.762909 678.048767,361.824036 681.918640,361.523285 
	C682.722778,361.460785 683.560608,361.733582 683.999573,363.031921 
	C682.119324,366.305084 678.982788,364.747955 676.340210,364.558441 
	C673.606018,364.362305 673.679626,362.134033 673.706665,360.089996 
	C673.743713,357.285645 673.720947,354.480225 673.785400,351.676697 
	C673.813110,350.471893 674.111572,349.263397 675.612244,349.198517 
	C677.237488,349.128265 677.306824,350.413727 677.392090,351.991119 
z"/>
<path fill="#000000" opacity="1.000000" stroke="none" 
	d="
M433.704529,357.004791 
	C434.284760,354.148132 432.198456,349.820984 435.364777,349.714020 
	C438.962524,349.592468 437.031494,353.890808 437.204987,356.190765 
	C437.417877,359.012177 437.741272,361.108887 441.208496,361.112701 
	C442.315308,361.113892 443.577972,361.294830 444.008850,363.149506 
	C441.572327,366.023132 438.171539,364.631378 435.572845,363.962646 
	C432.433716,363.154877 434.126160,359.751099 433.704529,357.004791 
z"/>
<path fill="#000000" opacity="1.000000" stroke="none" 
	d="
M652.177490,357.846252 
	C652.174133,359.293884 652.202637,360.288788 652.151184,361.279510 
	C652.070496,362.834045 651.870117,364.453369 649.766907,364.275879 
	C648.003784,364.127136 647.914612,362.610504 647.901123,361.275238 
	C647.869263,358.131226 647.880371,354.985535 647.951172,351.842285 
	C647.978271,350.636627 648.376221,349.397095 649.780579,349.280884 
	C651.560364,349.133636 651.925171,350.575989 652.028381,351.933167 
	C652.166260,353.745850 652.133301,355.571533 652.177490,357.846252 
z"/>
<path fill="#000000" opacity="1.000000" stroke="none" 
	d="
M539.897339,360.508606 
	C539.895691,357.269745 539.864929,354.470459 539.926147,351.673157 
	C539.952942,350.449615 540.421997,349.299927 541.812317,349.178680 
	C543.580933,349.024475 544.033997,350.377625 544.082031,351.761871 
	C544.190369,354.887024 544.198242,358.016602 544.194824,361.144318 
	C544.193359,362.486481 544.078918,364.062500 542.443787,364.262726 
	C540.036011,364.557526 540.020020,362.626740 539.897339,360.508606 
z"/>
<path fill="#000000" opacity="1.000000" stroke="none" 
	d="
M776.832336,349.368225 
	C779.110901,353.674194 777.957275,357.974518 777.930664,362.180969 
	C777.919312,363.985931 776.640625,364.987030 774.910645,363.723877 
	C772.635071,362.062439 773.897339,350.990845 776.832336,349.368225 
z"/>
<path fill="#000000" opacity="1.000000" stroke="none" 
	d="
M429.319580,358.720032 
	C429.263519,360.327545 429.275208,361.497223 429.119110,362.644012 
	C428.996765,363.542450 428.381287,364.154572 427.423553,364.101379 
	C426.467468,364.048279 425.889160,363.378662 425.873291,362.470093 
	C425.806519,358.652252 425.775757,354.832733 425.821106,351.014893 
	C425.831421,350.143982 426.442444,349.415894 427.383148,349.366150 
	C428.651184,349.299072 429.114105,350.240875 429.163513,351.296478 
	C429.272278,353.619019 429.271240,355.946716 429.319580,358.720032 
z"/>
</svg>